<svg width="149" height="56" viewBox="0 0 149 56" fill="none" xmlns="http://www.w3.org/2000/svg">
<path d="M0.170438 1.608H18.7444C22.1484 1.608 25.5771 2.052 29.0304 2.94C32.4838 3.828 35.5918 5.308 38.3544 7.38C41.1171 9.40266 43.3618 12.0913 45.0884 15.446C46.8151 18.7513 47.6784 22.8707 47.6784 27.804C47.6784 32.392 46.8151 36.3387 45.0884 39.644C43.3618 42.9493 41.1171 45.6627 38.3544 47.784C35.5918 49.9053 32.4838 51.484 29.0304 52.52C25.5771 53.5067 22.1484 54 18.7444 54H0.170438V1.608ZM17.2644 45.86C19.6818 45.86 22.0991 45.5887 24.5164 45.046C26.9338 44.454 29.1044 43.492 31.0284 42.16C33.0018 40.7787 34.6051 38.9287 35.8384 36.61C37.0718 34.2913 37.6884 31.356 37.6884 27.804C37.6884 24.0547 37.0718 20.996 35.8384 18.628C34.6051 16.26 33.0018 14.41 31.0284 13.078C29.1044 11.746 26.9338 10.8333 24.5164 10.34C22.0991 9.84666 19.6818 9.6 17.2644 9.6H9.49444V45.86H17.2644ZM94.4962 13.892C93.1148 12.0173 91.3142 10.6607 89.0942 9.822C86.8742 8.934 84.7035 8.49 82.5822 8.49C79.8688 8.49 77.4022 8.98333 75.1822 9.97C72.9622 10.9567 71.0382 12.3133 69.4102 14.04C67.8315 15.7667 66.5982 17.7893 65.7102 20.108C64.8715 22.4267 64.4522 24.9427 64.4522 27.656C64.4522 30.5173 64.8715 33.132 65.7102 35.5C66.5488 37.868 67.7328 39.9153 69.2622 41.642C70.8408 43.3193 72.7155 44.6267 74.8862 45.564C77.0568 46.5013 79.4988 46.97 82.2122 46.97C85.0242 46.97 87.5155 46.4273 89.6862 45.342C91.8568 44.2073 93.6082 42.7273 94.9402 40.902L102.414 46.156C100.095 49.0667 97.2588 51.336 93.9042 52.964C90.5495 54.5427 86.6275 55.332 82.1382 55.332C78.0435 55.332 74.2695 54.666 70.8162 53.334C67.4122 51.9527 64.4768 50.0533 62.0102 47.636C59.5435 45.1693 57.6195 42.2587 56.2382 38.904C54.8568 35.5 54.1662 31.7507 54.1662 27.656C54.1662 23.4627 54.8815 19.6887 56.3122 16.334C57.7922 12.93 59.7902 10.044 62.3062 7.676C64.8715 5.308 67.8808 3.48266 71.3342 2.2C74.7875 0.917332 78.5368 0.275999 82.5822 0.275999C84.2595 0.275999 86.0108 0.448665 87.8362 0.793997C89.6615 1.09 91.4128 1.58333 93.0902 2.274C94.7675 2.91533 96.3462 3.72933 97.8262 4.716C99.3062 5.70267 100.564 6.88666 101.6 8.268L94.4962 13.892ZM119.994 31.282L100.31 1.608H111.706L124.878 23.66L138.198 1.608H149.002L129.318 31.282V54H119.994V31.282Z" fill="url(#paint0_linear_4030_10082)"/>
<defs>
<linearGradient id="paint0_linear_4030_10082" x1="-6" y1="3" x2="150.809" y2="12.4645" gradientUnits="userSpaceOnUse">
<stop stop-color="#8AD4EC"/>
<stop offset="0.217372" stop-color="#EF96FF"/>
<stop offset="0.540308" stop-color="#FF56A9"/>
<stop offset="0.852826" stop-color="#FFAA6C"/>
</linearGradient>
</defs>
</svg>
